<mxfile host="Electron" agent="Mozilla/5.0 (Windows NT 10.0; Win64; x64) AppleWebKit/537.36 (KHTML, like Gecko) draw.io/28.0.6 Chrome/138.0.7204.100 Electron/37.2.3 Safari/537.36" version="28.0.6">
  <diagram name="Page-1" id="I_PXWXZdhoEHhXAYt7SB">
    <mxGraphModel dx="827" dy="627" grid="1" gridSize="10" guides="1" tooltips="1" connect="1" arrows="1" fold="1" page="1" pageScale="1" pageWidth="850" pageHeight="1100" math="0" shadow="0">
      <root>
        <mxCell id="0" />
        <mxCell id="1" parent="0" />
        <mxCell id="Rk-5OL71g-Rq_t1wsoX9-1" value="&lt;font style=&quot;font-size: 19px;&quot;&gt;gold.dim_customer&lt;/font&gt;" style="shape=table;startSize=40;container=1;collapsible=1;childLayout=tableLayout;fixedRows=1;rowLines=0;fontStyle=1;align=center;resizeLast=1;html=1;fontSize=17;fillColor=#f8cecc;strokeColor=#b85450;gradientColor=#FF0000;rounded=1;spacing=2;spacingTop=0;" parent="1" vertex="1">
          <mxGeometry y="300" width="230" height="452" as="geometry" />
        </mxCell>
        <mxCell id="Rk-5OL71g-Rq_t1wsoX9-2" value="" style="shape=tableRow;horizontal=0;startSize=0;swimlaneHead=0;swimlaneBody=0;fillColor=none;collapsible=0;dropTarget=0;points=[[0,0.5],[1,0.5]];portConstraint=eastwest;top=0;left=0;right=0;bottom=1;fontSize=17;" parent="Rk-5OL71g-Rq_t1wsoX9-1" vertex="1">
          <mxGeometry y="40" width="230" height="30" as="geometry" />
        </mxCell>
        <mxCell id="Rk-5OL71g-Rq_t1wsoX9-3" value="&lt;span style=&quot;&quot;&gt;PK&lt;/span&gt;" style="shape=partialRectangle;connectable=0;fillColor=none;top=0;left=0;bottom=0;right=0;fontStyle=1;overflow=hidden;whiteSpace=wrap;html=1;fontSize=17;labelBackgroundColor=none;fontColor=default;" parent="Rk-5OL71g-Rq_t1wsoX9-2" vertex="1">
          <mxGeometry width="40" height="30" as="geometry">
            <mxRectangle width="40" height="30" as="alternateBounds" />
          </mxGeometry>
        </mxCell>
        <mxCell id="Rk-5OL71g-Rq_t1wsoX9-4" value="&lt;font style=&quot;&quot;&gt;customer_key&lt;/font&gt;" style="shape=partialRectangle;connectable=0;fillColor=none;top=0;left=0;bottom=0;right=0;align=left;spacingLeft=6;fontStyle=5;overflow=hidden;whiteSpace=wrap;html=1;fontSize=17;labelBackgroundColor=none;fontColor=default;" parent="Rk-5OL71g-Rq_t1wsoX9-2" vertex="1">
          <mxGeometry x="40" width="190" height="30" as="geometry">
            <mxRectangle width="190" height="30" as="alternateBounds" />
          </mxGeometry>
        </mxCell>
        <mxCell id="Rk-5OL71g-Rq_t1wsoX9-5" value="" style="shape=tableRow;horizontal=0;startSize=0;swimlaneHead=0;swimlaneBody=0;fillColor=none;collapsible=0;dropTarget=0;points=[[0,0.5],[1,0.5]];portConstraint=eastwest;top=0;left=0;right=0;bottom=0;fontSize=17;" parent="Rk-5OL71g-Rq_t1wsoX9-1" vertex="1">
          <mxGeometry y="70" width="230" height="46" as="geometry" />
        </mxCell>
        <mxCell id="Rk-5OL71g-Rq_t1wsoX9-6" value="" style="shape=partialRectangle;connectable=0;fillColor=none;top=0;left=0;bottom=0;right=0;editable=1;overflow=hidden;whiteSpace=wrap;html=1;fontSize=17;" parent="Rk-5OL71g-Rq_t1wsoX9-5" vertex="1">
          <mxGeometry width="40" height="46" as="geometry">
            <mxRectangle width="40" height="46" as="alternateBounds" />
          </mxGeometry>
        </mxCell>
        <mxCell id="Rk-5OL71g-Rq_t1wsoX9-7" value="customer_id" style="shape=partialRectangle;connectable=0;fillColor=none;top=0;left=0;bottom=0;right=0;align=left;spacingLeft=6;overflow=hidden;whiteSpace=wrap;html=1;fontSize=17;" parent="Rk-5OL71g-Rq_t1wsoX9-5" vertex="1">
          <mxGeometry x="40" width="190" height="46" as="geometry">
            <mxRectangle width="190" height="46" as="alternateBounds" />
          </mxGeometry>
        </mxCell>
        <mxCell id="Rk-5OL71g-Rq_t1wsoX9-8" value="" style="shape=tableRow;horizontal=0;startSize=0;swimlaneHead=0;swimlaneBody=0;fillColor=none;collapsible=0;dropTarget=0;points=[[0,0.5],[1,0.5]];portConstraint=eastwest;top=0;left=0;right=0;bottom=0;fontSize=17;" parent="Rk-5OL71g-Rq_t1wsoX9-1" vertex="1">
          <mxGeometry y="116" width="230" height="42" as="geometry" />
        </mxCell>
        <mxCell id="Rk-5OL71g-Rq_t1wsoX9-9" value="" style="shape=partialRectangle;connectable=0;fillColor=none;top=0;left=0;bottom=0;right=0;editable=1;overflow=hidden;whiteSpace=wrap;html=1;fontSize=17;" parent="Rk-5OL71g-Rq_t1wsoX9-8" vertex="1">
          <mxGeometry width="40" height="42" as="geometry">
            <mxRectangle width="40" height="42" as="alternateBounds" />
          </mxGeometry>
        </mxCell>
        <mxCell id="Rk-5OL71g-Rq_t1wsoX9-10" value="customer_number" style="shape=partialRectangle;connectable=0;fillColor=none;top=0;left=0;bottom=0;right=0;align=left;spacingLeft=6;overflow=hidden;whiteSpace=wrap;html=1;fontSize=17;" parent="Rk-5OL71g-Rq_t1wsoX9-8" vertex="1">
          <mxGeometry x="40" width="190" height="42" as="geometry">
            <mxRectangle width="190" height="42" as="alternateBounds" />
          </mxGeometry>
        </mxCell>
        <mxCell id="Rk-5OL71g-Rq_t1wsoX9-11" value="" style="shape=tableRow;horizontal=0;startSize=0;swimlaneHead=0;swimlaneBody=0;fillColor=none;collapsible=0;dropTarget=0;points=[[0,0.5],[1,0.5]];portConstraint=eastwest;top=0;left=0;right=0;bottom=0;fontSize=17;" parent="Rk-5OL71g-Rq_t1wsoX9-1" vertex="1">
          <mxGeometry y="158" width="230" height="42" as="geometry" />
        </mxCell>
        <mxCell id="Rk-5OL71g-Rq_t1wsoX9-12" value="" style="shape=partialRectangle;connectable=0;fillColor=none;top=0;left=0;bottom=0;right=0;editable=1;overflow=hidden;whiteSpace=wrap;html=1;fontSize=17;" parent="Rk-5OL71g-Rq_t1wsoX9-11" vertex="1">
          <mxGeometry width="40" height="42" as="geometry">
            <mxRectangle width="40" height="42" as="alternateBounds" />
          </mxGeometry>
        </mxCell>
        <mxCell id="Rk-5OL71g-Rq_t1wsoX9-13" value="first_name" style="shape=partialRectangle;connectable=0;fillColor=none;top=0;left=0;bottom=0;right=0;align=left;spacingLeft=6;overflow=hidden;whiteSpace=wrap;html=1;fontSize=17;" parent="Rk-5OL71g-Rq_t1wsoX9-11" vertex="1">
          <mxGeometry x="40" width="190" height="42" as="geometry">
            <mxRectangle width="190" height="42" as="alternateBounds" />
          </mxGeometry>
        </mxCell>
        <mxCell id="Rk-5OL71g-Rq_t1wsoX9-15" value="" style="shape=tableRow;horizontal=0;startSize=0;swimlaneHead=0;swimlaneBody=0;fillColor=none;collapsible=0;dropTarget=0;points=[[0,0.5],[1,0.5]];portConstraint=eastwest;top=0;left=0;right=0;bottom=0;fontSize=17;" parent="Rk-5OL71g-Rq_t1wsoX9-1" vertex="1">
          <mxGeometry y="200" width="230" height="42" as="geometry" />
        </mxCell>
        <mxCell id="Rk-5OL71g-Rq_t1wsoX9-16" value="" style="shape=partialRectangle;connectable=0;fillColor=none;top=0;left=0;bottom=0;right=0;editable=1;overflow=hidden;whiteSpace=wrap;html=1;fontSize=17;" parent="Rk-5OL71g-Rq_t1wsoX9-15" vertex="1">
          <mxGeometry width="40" height="42" as="geometry">
            <mxRectangle width="40" height="42" as="alternateBounds" />
          </mxGeometry>
        </mxCell>
        <mxCell id="Rk-5OL71g-Rq_t1wsoX9-17" value="last_name" style="shape=partialRectangle;connectable=0;fillColor=none;top=0;left=0;bottom=0;right=0;align=left;spacingLeft=6;overflow=hidden;whiteSpace=wrap;html=1;fontSize=17;" parent="Rk-5OL71g-Rq_t1wsoX9-15" vertex="1">
          <mxGeometry x="40" width="190" height="42" as="geometry">
            <mxRectangle width="190" height="42" as="alternateBounds" />
          </mxGeometry>
        </mxCell>
        <mxCell id="Rk-5OL71g-Rq_t1wsoX9-18" value="" style="shape=tableRow;horizontal=0;startSize=0;swimlaneHead=0;swimlaneBody=0;fillColor=none;collapsible=0;dropTarget=0;points=[[0,0.5],[1,0.5]];portConstraint=eastwest;top=0;left=0;right=0;bottom=0;fontSize=17;" parent="Rk-5OL71g-Rq_t1wsoX9-1" vertex="1">
          <mxGeometry y="242" width="230" height="42" as="geometry" />
        </mxCell>
        <mxCell id="Rk-5OL71g-Rq_t1wsoX9-19" value="" style="shape=partialRectangle;connectable=0;fillColor=none;top=0;left=0;bottom=0;right=0;editable=1;overflow=hidden;whiteSpace=wrap;html=1;fontSize=17;" parent="Rk-5OL71g-Rq_t1wsoX9-18" vertex="1">
          <mxGeometry width="40" height="42" as="geometry">
            <mxRectangle width="40" height="42" as="alternateBounds" />
          </mxGeometry>
        </mxCell>
        <mxCell id="Rk-5OL71g-Rq_t1wsoX9-20" value="country" style="shape=partialRectangle;connectable=0;fillColor=none;top=0;left=0;bottom=0;right=0;align=left;spacingLeft=6;overflow=hidden;whiteSpace=wrap;html=1;fontSize=17;" parent="Rk-5OL71g-Rq_t1wsoX9-18" vertex="1">
          <mxGeometry x="40" width="190" height="42" as="geometry">
            <mxRectangle width="190" height="42" as="alternateBounds" />
          </mxGeometry>
        </mxCell>
        <mxCell id="Rk-5OL71g-Rq_t1wsoX9-21" value="" style="shape=tableRow;horizontal=0;startSize=0;swimlaneHead=0;swimlaneBody=0;fillColor=none;collapsible=0;dropTarget=0;points=[[0,0.5],[1,0.5]];portConstraint=eastwest;top=0;left=0;right=0;bottom=0;fontSize=17;" parent="Rk-5OL71g-Rq_t1wsoX9-1" vertex="1">
          <mxGeometry y="284" width="230" height="42" as="geometry" />
        </mxCell>
        <mxCell id="Rk-5OL71g-Rq_t1wsoX9-22" value="" style="shape=partialRectangle;connectable=0;fillColor=none;top=0;left=0;bottom=0;right=0;editable=1;overflow=hidden;whiteSpace=wrap;html=1;fontSize=17;" parent="Rk-5OL71g-Rq_t1wsoX9-21" vertex="1">
          <mxGeometry width="40" height="42" as="geometry">
            <mxRectangle width="40" height="42" as="alternateBounds" />
          </mxGeometry>
        </mxCell>
        <mxCell id="Rk-5OL71g-Rq_t1wsoX9-23" value="marital_status" style="shape=partialRectangle;connectable=0;fillColor=none;top=0;left=0;bottom=0;right=0;align=left;spacingLeft=6;overflow=hidden;whiteSpace=wrap;html=1;fontSize=17;" parent="Rk-5OL71g-Rq_t1wsoX9-21" vertex="1">
          <mxGeometry x="40" width="190" height="42" as="geometry">
            <mxRectangle width="190" height="42" as="alternateBounds" />
          </mxGeometry>
        </mxCell>
        <mxCell id="Rk-5OL71g-Rq_t1wsoX9-24" value="" style="shape=tableRow;horizontal=0;startSize=0;swimlaneHead=0;swimlaneBody=0;fillColor=none;collapsible=0;dropTarget=0;points=[[0,0.5],[1,0.5]];portConstraint=eastwest;top=0;left=0;right=0;bottom=0;fontSize=17;" parent="Rk-5OL71g-Rq_t1wsoX9-1" vertex="1">
          <mxGeometry y="326" width="230" height="42" as="geometry" />
        </mxCell>
        <mxCell id="Rk-5OL71g-Rq_t1wsoX9-25" value="" style="shape=partialRectangle;connectable=0;fillColor=none;top=0;left=0;bottom=0;right=0;editable=1;overflow=hidden;whiteSpace=wrap;html=1;fontSize=17;" parent="Rk-5OL71g-Rq_t1wsoX9-24" vertex="1">
          <mxGeometry width="40" height="42" as="geometry">
            <mxRectangle width="40" height="42" as="alternateBounds" />
          </mxGeometry>
        </mxCell>
        <mxCell id="Rk-5OL71g-Rq_t1wsoX9-26" value="new_gender" style="shape=partialRectangle;connectable=0;fillColor=none;top=0;left=0;bottom=0;right=0;align=left;spacingLeft=6;overflow=hidden;whiteSpace=wrap;html=1;fontSize=17;" parent="Rk-5OL71g-Rq_t1wsoX9-24" vertex="1">
          <mxGeometry x="40" width="190" height="42" as="geometry">
            <mxRectangle width="190" height="42" as="alternateBounds" />
          </mxGeometry>
        </mxCell>
        <mxCell id="Rk-5OL71g-Rq_t1wsoX9-27" value="" style="shape=tableRow;horizontal=0;startSize=0;swimlaneHead=0;swimlaneBody=0;fillColor=none;collapsible=0;dropTarget=0;points=[[0,0.5],[1,0.5]];portConstraint=eastwest;top=0;left=0;right=0;bottom=0;fontSize=17;" parent="Rk-5OL71g-Rq_t1wsoX9-1" vertex="1">
          <mxGeometry y="368" width="230" height="42" as="geometry" />
        </mxCell>
        <mxCell id="Rk-5OL71g-Rq_t1wsoX9-28" value="" style="shape=partialRectangle;connectable=0;fillColor=none;top=0;left=0;bottom=0;right=0;editable=1;overflow=hidden;whiteSpace=wrap;html=1;fontSize=17;" parent="Rk-5OL71g-Rq_t1wsoX9-27" vertex="1">
          <mxGeometry width="40" height="42" as="geometry">
            <mxRectangle width="40" height="42" as="alternateBounds" />
          </mxGeometry>
        </mxCell>
        <mxCell id="Rk-5OL71g-Rq_t1wsoX9-29" value="birthdate" style="shape=partialRectangle;connectable=0;fillColor=none;top=0;left=0;bottom=0;right=0;align=left;spacingLeft=6;overflow=hidden;whiteSpace=wrap;html=1;fontSize=17;" parent="Rk-5OL71g-Rq_t1wsoX9-27" vertex="1">
          <mxGeometry x="40" width="190" height="42" as="geometry">
            <mxRectangle width="190" height="42" as="alternateBounds" />
          </mxGeometry>
        </mxCell>
        <mxCell id="Rk-5OL71g-Rq_t1wsoX9-30" value="" style="shape=tableRow;horizontal=0;startSize=0;swimlaneHead=0;swimlaneBody=0;fillColor=none;collapsible=0;dropTarget=0;points=[[0,0.5],[1,0.5]];portConstraint=eastwest;top=0;left=0;right=0;bottom=0;fontSize=17;" parent="Rk-5OL71g-Rq_t1wsoX9-1" vertex="1">
          <mxGeometry y="410" width="230" height="42" as="geometry" />
        </mxCell>
        <mxCell id="Rk-5OL71g-Rq_t1wsoX9-31" value="" style="shape=partialRectangle;connectable=0;fillColor=none;top=0;left=0;bottom=0;right=0;editable=1;overflow=hidden;whiteSpace=wrap;html=1;fontSize=17;" parent="Rk-5OL71g-Rq_t1wsoX9-30" vertex="1">
          <mxGeometry width="40" height="42" as="geometry">
            <mxRectangle width="40" height="42" as="alternateBounds" />
          </mxGeometry>
        </mxCell>
        <mxCell id="Rk-5OL71g-Rq_t1wsoX9-32" value="create_date" style="shape=partialRectangle;connectable=0;fillColor=none;top=0;left=0;bottom=0;right=0;align=left;spacingLeft=6;overflow=hidden;whiteSpace=wrap;html=1;fontSize=17;" parent="Rk-5OL71g-Rq_t1wsoX9-30" vertex="1">
          <mxGeometry x="40" width="190" height="42" as="geometry">
            <mxRectangle width="190" height="42" as="alternateBounds" />
          </mxGeometry>
        </mxCell>
        <mxCell id="Rk-5OL71g-Rq_t1wsoX9-33" value="&lt;font style=&quot;font-size: 19px;&quot;&gt;gold.dim_products&lt;/font&gt;" style="shape=table;startSize=40;container=1;collapsible=1;childLayout=tableLayout;fixedRows=1;rowLines=0;fontStyle=1;align=center;resizeLast=1;html=1;fontSize=17;fillColor=#f8cecc;strokeColor=#b85450;gradientColor=#FF0000;rounded=1;spacing=2;spacingTop=0;" parent="1" vertex="1">
          <mxGeometry x="580" y="290" width="270" height="494" as="geometry" />
        </mxCell>
        <mxCell id="Rk-5OL71g-Rq_t1wsoX9-34" value="" style="shape=tableRow;horizontal=0;startSize=0;swimlaneHead=0;swimlaneBody=0;fillColor=none;collapsible=0;dropTarget=0;points=[[0,0.5],[1,0.5]];portConstraint=eastwest;top=0;left=0;right=0;bottom=1;fontSize=17;labelBackgroundColor=#4D4D4D;" parent="Rk-5OL71g-Rq_t1wsoX9-33" vertex="1">
          <mxGeometry y="40" width="270" height="30" as="geometry" />
        </mxCell>
        <mxCell id="Rk-5OL71g-Rq_t1wsoX9-35" value="PK" style="shape=partialRectangle;connectable=0;fillColor=none;top=0;left=0;bottom=0;right=0;fontStyle=1;overflow=hidden;whiteSpace=wrap;html=1;fontSize=17;labelBackgroundColor=none;" parent="Rk-5OL71g-Rq_t1wsoX9-34" vertex="1">
          <mxGeometry width="40" height="30" as="geometry">
            <mxRectangle width="40" height="30" as="alternateBounds" />
          </mxGeometry>
        </mxCell>
        <mxCell id="Rk-5OL71g-Rq_t1wsoX9-36" value="&lt;font&gt;product_key&lt;/font&gt;" style="shape=partialRectangle;connectable=0;fillColor=none;top=0;left=0;bottom=0;right=0;align=left;spacingLeft=6;fontStyle=5;overflow=hidden;whiteSpace=wrap;html=1;fontSize=17;labelBackgroundColor=none;" parent="Rk-5OL71g-Rq_t1wsoX9-34" vertex="1">
          <mxGeometry x="40" width="230" height="30" as="geometry">
            <mxRectangle width="230" height="30" as="alternateBounds" />
          </mxGeometry>
        </mxCell>
        <mxCell id="Rk-5OL71g-Rq_t1wsoX9-37" value="" style="shape=tableRow;horizontal=0;startSize=0;swimlaneHead=0;swimlaneBody=0;fillColor=none;collapsible=0;dropTarget=0;points=[[0,0.5],[1,0.5]];portConstraint=eastwest;top=0;left=0;right=0;bottom=0;fontSize=17;" parent="Rk-5OL71g-Rq_t1wsoX9-33" vertex="1">
          <mxGeometry y="70" width="270" height="46" as="geometry" />
        </mxCell>
        <mxCell id="Rk-5OL71g-Rq_t1wsoX9-38" value="" style="shape=partialRectangle;connectable=0;fillColor=none;top=0;left=0;bottom=0;right=0;editable=1;overflow=hidden;whiteSpace=wrap;html=1;fontSize=17;" parent="Rk-5OL71g-Rq_t1wsoX9-37" vertex="1">
          <mxGeometry width="40" height="46" as="geometry">
            <mxRectangle width="40" height="46" as="alternateBounds" />
          </mxGeometry>
        </mxCell>
        <mxCell id="Rk-5OL71g-Rq_t1wsoX9-39" value="product_id" style="shape=partialRectangle;connectable=0;fillColor=none;top=0;left=0;bottom=0;right=0;align=left;spacingLeft=6;overflow=hidden;whiteSpace=wrap;html=1;fontSize=17;" parent="Rk-5OL71g-Rq_t1wsoX9-37" vertex="1">
          <mxGeometry x="40" width="230" height="46" as="geometry">
            <mxRectangle width="230" height="46" as="alternateBounds" />
          </mxGeometry>
        </mxCell>
        <mxCell id="Rk-5OL71g-Rq_t1wsoX9-40" value="" style="shape=tableRow;horizontal=0;startSize=0;swimlaneHead=0;swimlaneBody=0;fillColor=none;collapsible=0;dropTarget=0;points=[[0,0.5],[1,0.5]];portConstraint=eastwest;top=0;left=0;right=0;bottom=0;fontSize=17;" parent="Rk-5OL71g-Rq_t1wsoX9-33" vertex="1">
          <mxGeometry y="116" width="270" height="42" as="geometry" />
        </mxCell>
        <mxCell id="Rk-5OL71g-Rq_t1wsoX9-41" value="" style="shape=partialRectangle;connectable=0;fillColor=none;top=0;left=0;bottom=0;right=0;editable=1;overflow=hidden;whiteSpace=wrap;html=1;fontSize=17;" parent="Rk-5OL71g-Rq_t1wsoX9-40" vertex="1">
          <mxGeometry width="40" height="42" as="geometry">
            <mxRectangle width="40" height="42" as="alternateBounds" />
          </mxGeometry>
        </mxCell>
        <mxCell id="Rk-5OL71g-Rq_t1wsoX9-42" value="product_number" style="shape=partialRectangle;connectable=0;fillColor=none;top=0;left=0;bottom=0;right=0;align=left;spacingLeft=6;overflow=hidden;whiteSpace=wrap;html=1;fontSize=17;" parent="Rk-5OL71g-Rq_t1wsoX9-40" vertex="1">
          <mxGeometry x="40" width="230" height="42" as="geometry">
            <mxRectangle width="230" height="42" as="alternateBounds" />
          </mxGeometry>
        </mxCell>
        <mxCell id="Rk-5OL71g-Rq_t1wsoX9-43" value="" style="shape=tableRow;horizontal=0;startSize=0;swimlaneHead=0;swimlaneBody=0;fillColor=none;collapsible=0;dropTarget=0;points=[[0,0.5],[1,0.5]];portConstraint=eastwest;top=0;left=0;right=0;bottom=0;fontSize=17;" parent="Rk-5OL71g-Rq_t1wsoX9-33" vertex="1">
          <mxGeometry y="158" width="270" height="42" as="geometry" />
        </mxCell>
        <mxCell id="Rk-5OL71g-Rq_t1wsoX9-44" value="" style="shape=partialRectangle;connectable=0;fillColor=none;top=0;left=0;bottom=0;right=0;editable=1;overflow=hidden;whiteSpace=wrap;html=1;fontSize=17;" parent="Rk-5OL71g-Rq_t1wsoX9-43" vertex="1">
          <mxGeometry width="40" height="42" as="geometry">
            <mxRectangle width="40" height="42" as="alternateBounds" />
          </mxGeometry>
        </mxCell>
        <mxCell id="Rk-5OL71g-Rq_t1wsoX9-45" value="product_name" style="shape=partialRectangle;connectable=0;fillColor=none;top=0;left=0;bottom=0;right=0;align=left;spacingLeft=6;overflow=hidden;whiteSpace=wrap;html=1;fontSize=17;" parent="Rk-5OL71g-Rq_t1wsoX9-43" vertex="1">
          <mxGeometry x="40" width="230" height="42" as="geometry">
            <mxRectangle width="230" height="42" as="alternateBounds" />
          </mxGeometry>
        </mxCell>
        <mxCell id="Rk-5OL71g-Rq_t1wsoX9-46" value="" style="shape=tableRow;horizontal=0;startSize=0;swimlaneHead=0;swimlaneBody=0;fillColor=none;collapsible=0;dropTarget=0;points=[[0,0.5],[1,0.5]];portConstraint=eastwest;top=0;left=0;right=0;bottom=0;fontSize=17;" parent="Rk-5OL71g-Rq_t1wsoX9-33" vertex="1">
          <mxGeometry y="200" width="270" height="42" as="geometry" />
        </mxCell>
        <mxCell id="Rk-5OL71g-Rq_t1wsoX9-47" value="" style="shape=partialRectangle;connectable=0;fillColor=none;top=0;left=0;bottom=0;right=0;editable=1;overflow=hidden;whiteSpace=wrap;html=1;fontSize=17;" parent="Rk-5OL71g-Rq_t1wsoX9-46" vertex="1">
          <mxGeometry width="40" height="42" as="geometry">
            <mxRectangle width="40" height="42" as="alternateBounds" />
          </mxGeometry>
        </mxCell>
        <mxCell id="Rk-5OL71g-Rq_t1wsoX9-48" value="category_id" style="shape=partialRectangle;connectable=0;fillColor=none;top=0;left=0;bottom=0;right=0;align=left;spacingLeft=6;overflow=hidden;whiteSpace=wrap;html=1;fontSize=17;" parent="Rk-5OL71g-Rq_t1wsoX9-46" vertex="1">
          <mxGeometry x="40" width="230" height="42" as="geometry">
            <mxRectangle width="230" height="42" as="alternateBounds" />
          </mxGeometry>
        </mxCell>
        <mxCell id="Rk-5OL71g-Rq_t1wsoX9-49" value="" style="shape=tableRow;horizontal=0;startSize=0;swimlaneHead=0;swimlaneBody=0;fillColor=none;collapsible=0;dropTarget=0;points=[[0,0.5],[1,0.5]];portConstraint=eastwest;top=0;left=0;right=0;bottom=0;fontSize=17;" parent="Rk-5OL71g-Rq_t1wsoX9-33" vertex="1">
          <mxGeometry y="242" width="270" height="42" as="geometry" />
        </mxCell>
        <mxCell id="Rk-5OL71g-Rq_t1wsoX9-50" value="" style="shape=partialRectangle;connectable=0;fillColor=none;top=0;left=0;bottom=0;right=0;editable=1;overflow=hidden;whiteSpace=wrap;html=1;fontSize=17;" parent="Rk-5OL71g-Rq_t1wsoX9-49" vertex="1">
          <mxGeometry width="40" height="42" as="geometry">
            <mxRectangle width="40" height="42" as="alternateBounds" />
          </mxGeometry>
        </mxCell>
        <mxCell id="Rk-5OL71g-Rq_t1wsoX9-51" value="category" style="shape=partialRectangle;connectable=0;fillColor=none;top=0;left=0;bottom=0;right=0;align=left;spacingLeft=6;overflow=hidden;whiteSpace=wrap;html=1;fontSize=17;" parent="Rk-5OL71g-Rq_t1wsoX9-49" vertex="1">
          <mxGeometry x="40" width="230" height="42" as="geometry">
            <mxRectangle width="230" height="42" as="alternateBounds" />
          </mxGeometry>
        </mxCell>
        <mxCell id="Rk-5OL71g-Rq_t1wsoX9-52" value="" style="shape=tableRow;horizontal=0;startSize=0;swimlaneHead=0;swimlaneBody=0;fillColor=none;collapsible=0;dropTarget=0;points=[[0,0.5],[1,0.5]];portConstraint=eastwest;top=0;left=0;right=0;bottom=0;fontSize=17;" parent="Rk-5OL71g-Rq_t1wsoX9-33" vertex="1">
          <mxGeometry y="284" width="270" height="42" as="geometry" />
        </mxCell>
        <mxCell id="Rk-5OL71g-Rq_t1wsoX9-53" value="" style="shape=partialRectangle;connectable=0;fillColor=none;top=0;left=0;bottom=0;right=0;editable=1;overflow=hidden;whiteSpace=wrap;html=1;fontSize=17;" parent="Rk-5OL71g-Rq_t1wsoX9-52" vertex="1">
          <mxGeometry width="40" height="42" as="geometry">
            <mxRectangle width="40" height="42" as="alternateBounds" />
          </mxGeometry>
        </mxCell>
        <mxCell id="Rk-5OL71g-Rq_t1wsoX9-54" value="subcategory" style="shape=partialRectangle;connectable=0;fillColor=none;top=0;left=0;bottom=0;right=0;align=left;spacingLeft=6;overflow=hidden;whiteSpace=wrap;html=1;fontSize=17;" parent="Rk-5OL71g-Rq_t1wsoX9-52" vertex="1">
          <mxGeometry x="40" width="230" height="42" as="geometry">
            <mxRectangle width="230" height="42" as="alternateBounds" />
          </mxGeometry>
        </mxCell>
        <mxCell id="Rk-5OL71g-Rq_t1wsoX9-55" value="" style="shape=tableRow;horizontal=0;startSize=0;swimlaneHead=0;swimlaneBody=0;fillColor=none;collapsible=0;dropTarget=0;points=[[0,0.5],[1,0.5]];portConstraint=eastwest;top=0;left=0;right=0;bottom=0;fontSize=17;" parent="Rk-5OL71g-Rq_t1wsoX9-33" vertex="1">
          <mxGeometry y="326" width="270" height="42" as="geometry" />
        </mxCell>
        <mxCell id="Rk-5OL71g-Rq_t1wsoX9-56" value="" style="shape=partialRectangle;connectable=0;fillColor=none;top=0;left=0;bottom=0;right=0;editable=1;overflow=hidden;whiteSpace=wrap;html=1;fontSize=17;" parent="Rk-5OL71g-Rq_t1wsoX9-55" vertex="1">
          <mxGeometry width="40" height="42" as="geometry">
            <mxRectangle width="40" height="42" as="alternateBounds" />
          </mxGeometry>
        </mxCell>
        <mxCell id="Rk-5OL71g-Rq_t1wsoX9-57" value="maintenance" style="shape=partialRectangle;connectable=0;fillColor=none;top=0;left=0;bottom=0;right=0;align=left;spacingLeft=6;overflow=hidden;whiteSpace=wrap;html=1;fontSize=17;" parent="Rk-5OL71g-Rq_t1wsoX9-55" vertex="1">
          <mxGeometry x="40" width="230" height="42" as="geometry">
            <mxRectangle width="230" height="42" as="alternateBounds" />
          </mxGeometry>
        </mxCell>
        <mxCell id="Rk-5OL71g-Rq_t1wsoX9-58" value="" style="shape=tableRow;horizontal=0;startSize=0;swimlaneHead=0;swimlaneBody=0;fillColor=none;collapsible=0;dropTarget=0;points=[[0,0.5],[1,0.5]];portConstraint=eastwest;top=0;left=0;right=0;bottom=0;fontSize=17;" parent="Rk-5OL71g-Rq_t1wsoX9-33" vertex="1">
          <mxGeometry y="368" width="270" height="42" as="geometry" />
        </mxCell>
        <mxCell id="Rk-5OL71g-Rq_t1wsoX9-59" value="" style="shape=partialRectangle;connectable=0;fillColor=none;top=0;left=0;bottom=0;right=0;editable=1;overflow=hidden;whiteSpace=wrap;html=1;fontSize=17;" parent="Rk-5OL71g-Rq_t1wsoX9-58" vertex="1">
          <mxGeometry width="40" height="42" as="geometry">
            <mxRectangle width="40" height="42" as="alternateBounds" />
          </mxGeometry>
        </mxCell>
        <mxCell id="Rk-5OL71g-Rq_t1wsoX9-60" value="cost" style="shape=partialRectangle;connectable=0;fillColor=none;top=0;left=0;bottom=0;right=0;align=left;spacingLeft=6;overflow=hidden;whiteSpace=wrap;html=1;fontSize=17;" parent="Rk-5OL71g-Rq_t1wsoX9-58" vertex="1">
          <mxGeometry x="40" width="230" height="42" as="geometry">
            <mxRectangle width="230" height="42" as="alternateBounds" />
          </mxGeometry>
        </mxCell>
        <mxCell id="Rk-5OL71g-Rq_t1wsoX9-61" value="" style="shape=tableRow;horizontal=0;startSize=0;swimlaneHead=0;swimlaneBody=0;fillColor=none;collapsible=0;dropTarget=0;points=[[0,0.5],[1,0.5]];portConstraint=eastwest;top=0;left=0;right=0;bottom=0;fontSize=17;" parent="Rk-5OL71g-Rq_t1wsoX9-33" vertex="1">
          <mxGeometry y="410" width="270" height="42" as="geometry" />
        </mxCell>
        <mxCell id="Rk-5OL71g-Rq_t1wsoX9-62" value="" style="shape=partialRectangle;connectable=0;fillColor=none;top=0;left=0;bottom=0;right=0;editable=1;overflow=hidden;whiteSpace=wrap;html=1;fontSize=17;" parent="Rk-5OL71g-Rq_t1wsoX9-61" vertex="1">
          <mxGeometry width="40" height="42" as="geometry">
            <mxRectangle width="40" height="42" as="alternateBounds" />
          </mxGeometry>
        </mxCell>
        <mxCell id="Rk-5OL71g-Rq_t1wsoX9-63" value="product_line" style="shape=partialRectangle;connectable=0;fillColor=none;top=0;left=0;bottom=0;right=0;align=left;spacingLeft=6;overflow=hidden;whiteSpace=wrap;html=1;fontSize=17;" parent="Rk-5OL71g-Rq_t1wsoX9-61" vertex="1">
          <mxGeometry x="40" width="230" height="42" as="geometry">
            <mxRectangle width="230" height="42" as="alternateBounds" />
          </mxGeometry>
        </mxCell>
        <mxCell id="Rk-5OL71g-Rq_t1wsoX9-64" value="" style="shape=tableRow;horizontal=0;startSize=0;swimlaneHead=0;swimlaneBody=0;fillColor=none;collapsible=0;dropTarget=0;points=[[0,0.5],[1,0.5]];portConstraint=eastwest;top=0;left=0;right=0;bottom=0;fontSize=17;" parent="Rk-5OL71g-Rq_t1wsoX9-33" vertex="1">
          <mxGeometry y="452" width="270" height="42" as="geometry" />
        </mxCell>
        <mxCell id="Rk-5OL71g-Rq_t1wsoX9-65" value="" style="shape=partialRectangle;connectable=0;fillColor=none;top=0;left=0;bottom=0;right=0;editable=1;overflow=hidden;whiteSpace=wrap;html=1;fontSize=17;" parent="Rk-5OL71g-Rq_t1wsoX9-64" vertex="1">
          <mxGeometry width="40" height="42" as="geometry">
            <mxRectangle width="40" height="42" as="alternateBounds" />
          </mxGeometry>
        </mxCell>
        <mxCell id="Rk-5OL71g-Rq_t1wsoX9-66" value="start_date" style="shape=partialRectangle;connectable=0;fillColor=none;top=0;left=0;bottom=0;right=0;align=left;spacingLeft=6;overflow=hidden;whiteSpace=wrap;html=1;fontSize=17;" parent="Rk-5OL71g-Rq_t1wsoX9-64" vertex="1">
          <mxGeometry x="40" width="230" height="42" as="geometry">
            <mxRectangle width="230" height="42" as="alternateBounds" />
          </mxGeometry>
        </mxCell>
        <mxCell id="Rk-5OL71g-Rq_t1wsoX9-67" value="&lt;span style=&quot;font-size: 19px;&quot;&gt;gold.fact_sales&lt;/span&gt;" style="shape=table;startSize=40;container=1;collapsible=1;childLayout=tableLayout;fixedRows=1;rowLines=0;fontStyle=1;align=center;resizeLast=1;html=1;fontSize=17;rounded=1;spacing=2;spacingTop=0;fillColor=#f5f5f5;strokeColor=#666666;fontColor=#333333;" parent="1" vertex="1">
          <mxGeometry x="295" y="300" width="220" height="422" as="geometry" />
        </mxCell>
        <mxCell id="Rk-5OL71g-Rq_t1wsoX9-71" value="" style="shape=tableRow;horizontal=0;startSize=0;swimlaneHead=0;swimlaneBody=0;fillColor=none;collapsible=0;dropTarget=0;points=[[0,0.5],[1,0.5]];portConstraint=eastwest;top=0;left=0;right=0;bottom=0;fontSize=17;" parent="Rk-5OL71g-Rq_t1wsoX9-67" vertex="1">
          <mxGeometry y="40" width="220" height="46" as="geometry" />
        </mxCell>
        <mxCell id="Rk-5OL71g-Rq_t1wsoX9-72" value="" style="shape=partialRectangle;connectable=0;fillColor=none;top=0;left=0;bottom=0;right=0;editable=1;overflow=hidden;whiteSpace=wrap;html=1;fontSize=17;" parent="Rk-5OL71g-Rq_t1wsoX9-71" vertex="1">
          <mxGeometry width="40" height="46" as="geometry">
            <mxRectangle width="40" height="46" as="alternateBounds" />
          </mxGeometry>
        </mxCell>
        <mxCell id="Rk-5OL71g-Rq_t1wsoX9-73" value="order_number" style="shape=partialRectangle;connectable=0;fillColor=none;top=0;left=0;bottom=0;right=0;align=left;spacingLeft=6;overflow=hidden;whiteSpace=wrap;html=1;fontSize=17;" parent="Rk-5OL71g-Rq_t1wsoX9-71" vertex="1">
          <mxGeometry x="40" width="180" height="46" as="geometry">
            <mxRectangle width="180" height="46" as="alternateBounds" />
          </mxGeometry>
        </mxCell>
        <mxCell id="Rk-5OL71g-Rq_t1wsoX9-74" value="" style="shape=tableRow;horizontal=0;startSize=0;swimlaneHead=0;swimlaneBody=0;fillColor=none;collapsible=0;dropTarget=0;points=[[0,0.5],[1,0.5]];portConstraint=eastwest;top=0;left=0;right=0;bottom=0;fontSize=17;labelBackgroundColor=#4D4D4D;" parent="Rk-5OL71g-Rq_t1wsoX9-67" vertex="1">
          <mxGeometry y="86" width="220" height="42" as="geometry" />
        </mxCell>
        <mxCell id="Rk-5OL71g-Rq_t1wsoX9-75" value="&lt;b&gt;FK1&lt;/b&gt;" style="shape=partialRectangle;connectable=0;fillColor=none;top=0;left=0;bottom=0;right=0;editable=1;overflow=hidden;whiteSpace=wrap;html=1;fontSize=17;labelBackgroundColor=none;" parent="Rk-5OL71g-Rq_t1wsoX9-74" vertex="1">
          <mxGeometry width="40" height="42" as="geometry">
            <mxRectangle width="40" height="42" as="alternateBounds" />
          </mxGeometry>
        </mxCell>
        <mxCell id="Rk-5OL71g-Rq_t1wsoX9-76" value="product_key" style="shape=partialRectangle;connectable=0;fillColor=none;top=0;left=0;bottom=0;right=0;align=left;spacingLeft=6;overflow=hidden;whiteSpace=wrap;html=1;fontSize=17;labelBackgroundColor=none;" parent="Rk-5OL71g-Rq_t1wsoX9-74" vertex="1">
          <mxGeometry x="40" width="180" height="42" as="geometry">
            <mxRectangle width="180" height="42" as="alternateBounds" />
          </mxGeometry>
        </mxCell>
        <mxCell id="Rk-5OL71g-Rq_t1wsoX9-77" value="" style="shape=tableRow;horizontal=0;startSize=0;swimlaneHead=0;swimlaneBody=0;fillColor=none;collapsible=0;dropTarget=0;points=[[0,0.5],[1,0.5]];portConstraint=eastwest;top=0;left=0;right=0;bottom=0;fontSize=17;labelBackgroundColor=#4D4D4D;" parent="Rk-5OL71g-Rq_t1wsoX9-67" vertex="1">
          <mxGeometry y="128" width="220" height="42" as="geometry" />
        </mxCell>
        <mxCell id="Rk-5OL71g-Rq_t1wsoX9-78" value="&lt;b&gt;FK2&lt;/b&gt;" style="shape=partialRectangle;connectable=0;fillColor=none;top=0;left=0;bottom=0;right=0;editable=1;overflow=hidden;whiteSpace=wrap;html=1;fontSize=17;labelBackgroundColor=none;" parent="Rk-5OL71g-Rq_t1wsoX9-77" vertex="1">
          <mxGeometry width="40" height="42" as="geometry">
            <mxRectangle width="40" height="42" as="alternateBounds" />
          </mxGeometry>
        </mxCell>
        <mxCell id="Rk-5OL71g-Rq_t1wsoX9-79" value="customer_key" style="shape=partialRectangle;connectable=0;fillColor=none;top=0;left=0;bottom=0;right=0;align=left;spacingLeft=6;overflow=hidden;whiteSpace=wrap;html=1;fontSize=17;labelBackgroundColor=none;" parent="Rk-5OL71g-Rq_t1wsoX9-77" vertex="1">
          <mxGeometry x="40" width="180" height="42" as="geometry">
            <mxRectangle width="180" height="42" as="alternateBounds" />
          </mxGeometry>
        </mxCell>
        <mxCell id="Rk-5OL71g-Rq_t1wsoX9-80" value="" style="shape=tableRow;horizontal=0;startSize=0;swimlaneHead=0;swimlaneBody=0;fillColor=none;collapsible=0;dropTarget=0;points=[[0,0.5],[1,0.5]];portConstraint=eastwest;top=0;left=0;right=0;bottom=0;fontSize=17;" parent="Rk-5OL71g-Rq_t1wsoX9-67" vertex="1">
          <mxGeometry y="170" width="220" height="42" as="geometry" />
        </mxCell>
        <mxCell id="Rk-5OL71g-Rq_t1wsoX9-81" value="" style="shape=partialRectangle;connectable=0;fillColor=none;top=0;left=0;bottom=0;right=0;editable=1;overflow=hidden;whiteSpace=wrap;html=1;fontSize=17;" parent="Rk-5OL71g-Rq_t1wsoX9-80" vertex="1">
          <mxGeometry width="40" height="42" as="geometry">
            <mxRectangle width="40" height="42" as="alternateBounds" />
          </mxGeometry>
        </mxCell>
        <mxCell id="Rk-5OL71g-Rq_t1wsoX9-82" value="order_date" style="shape=partialRectangle;connectable=0;fillColor=none;top=0;left=0;bottom=0;right=0;align=left;spacingLeft=6;overflow=hidden;whiteSpace=wrap;html=1;fontSize=17;" parent="Rk-5OL71g-Rq_t1wsoX9-80" vertex="1">
          <mxGeometry x="40" width="180" height="42" as="geometry">
            <mxRectangle width="180" height="42" as="alternateBounds" />
          </mxGeometry>
        </mxCell>
        <mxCell id="Rk-5OL71g-Rq_t1wsoX9-83" value="" style="shape=tableRow;horizontal=0;startSize=0;swimlaneHead=0;swimlaneBody=0;fillColor=none;collapsible=0;dropTarget=0;points=[[0,0.5],[1,0.5]];portConstraint=eastwest;top=0;left=0;right=0;bottom=0;fontSize=17;" parent="Rk-5OL71g-Rq_t1wsoX9-67" vertex="1">
          <mxGeometry y="212" width="220" height="42" as="geometry" />
        </mxCell>
        <mxCell id="Rk-5OL71g-Rq_t1wsoX9-84" value="" style="shape=partialRectangle;connectable=0;fillColor=none;top=0;left=0;bottom=0;right=0;editable=1;overflow=hidden;whiteSpace=wrap;html=1;fontSize=17;" parent="Rk-5OL71g-Rq_t1wsoX9-83" vertex="1">
          <mxGeometry width="40" height="42" as="geometry">
            <mxRectangle width="40" height="42" as="alternateBounds" />
          </mxGeometry>
        </mxCell>
        <mxCell id="Rk-5OL71g-Rq_t1wsoX9-85" value="shipping_date" style="shape=partialRectangle;connectable=0;fillColor=none;top=0;left=0;bottom=0;right=0;align=left;spacingLeft=6;overflow=hidden;whiteSpace=wrap;html=1;fontSize=17;" parent="Rk-5OL71g-Rq_t1wsoX9-83" vertex="1">
          <mxGeometry x="40" width="180" height="42" as="geometry">
            <mxRectangle width="180" height="42" as="alternateBounds" />
          </mxGeometry>
        </mxCell>
        <mxCell id="Rk-5OL71g-Rq_t1wsoX9-86" value="" style="shape=tableRow;horizontal=0;startSize=0;swimlaneHead=0;swimlaneBody=0;fillColor=none;collapsible=0;dropTarget=0;points=[[0,0.5],[1,0.5]];portConstraint=eastwest;top=0;left=0;right=0;bottom=0;fontSize=17;" parent="Rk-5OL71g-Rq_t1wsoX9-67" vertex="1">
          <mxGeometry y="254" width="220" height="42" as="geometry" />
        </mxCell>
        <mxCell id="Rk-5OL71g-Rq_t1wsoX9-87" value="" style="shape=partialRectangle;connectable=0;fillColor=none;top=0;left=0;bottom=0;right=0;editable=1;overflow=hidden;whiteSpace=wrap;html=1;fontSize=17;" parent="Rk-5OL71g-Rq_t1wsoX9-86" vertex="1">
          <mxGeometry width="40" height="42" as="geometry">
            <mxRectangle width="40" height="42" as="alternateBounds" />
          </mxGeometry>
        </mxCell>
        <mxCell id="Rk-5OL71g-Rq_t1wsoX9-88" value="due_date" style="shape=partialRectangle;connectable=0;fillColor=none;top=0;left=0;bottom=0;right=0;align=left;spacingLeft=6;overflow=hidden;whiteSpace=wrap;html=1;fontSize=17;" parent="Rk-5OL71g-Rq_t1wsoX9-86" vertex="1">
          <mxGeometry x="40" width="180" height="42" as="geometry">
            <mxRectangle width="180" height="42" as="alternateBounds" />
          </mxGeometry>
        </mxCell>
        <mxCell id="Rk-5OL71g-Rq_t1wsoX9-89" value="" style="shape=tableRow;horizontal=0;startSize=0;swimlaneHead=0;swimlaneBody=0;fillColor=none;collapsible=0;dropTarget=0;points=[[0,0.5],[1,0.5]];portConstraint=eastwest;top=0;left=0;right=0;bottom=0;fontSize=17;" parent="Rk-5OL71g-Rq_t1wsoX9-67" vertex="1">
          <mxGeometry y="296" width="220" height="42" as="geometry" />
        </mxCell>
        <mxCell id="Rk-5OL71g-Rq_t1wsoX9-90" value="" style="shape=partialRectangle;connectable=0;fillColor=none;top=0;left=0;bottom=0;right=0;editable=1;overflow=hidden;whiteSpace=wrap;html=1;fontSize=17;" parent="Rk-5OL71g-Rq_t1wsoX9-89" vertex="1">
          <mxGeometry width="40" height="42" as="geometry">
            <mxRectangle width="40" height="42" as="alternateBounds" />
          </mxGeometry>
        </mxCell>
        <mxCell id="Rk-5OL71g-Rq_t1wsoX9-91" value="sales_amount" style="shape=partialRectangle;connectable=0;fillColor=none;top=0;left=0;bottom=0;right=0;align=left;spacingLeft=6;overflow=hidden;whiteSpace=wrap;html=1;fontSize=17;" parent="Rk-5OL71g-Rq_t1wsoX9-89" vertex="1">
          <mxGeometry x="40" width="180" height="42" as="geometry">
            <mxRectangle width="180" height="42" as="alternateBounds" />
          </mxGeometry>
        </mxCell>
        <mxCell id="Rk-5OL71g-Rq_t1wsoX9-92" value="" style="shape=tableRow;horizontal=0;startSize=0;swimlaneHead=0;swimlaneBody=0;fillColor=none;collapsible=0;dropTarget=0;points=[[0,0.5],[1,0.5]];portConstraint=eastwest;top=0;left=0;right=0;bottom=0;fontSize=17;" parent="Rk-5OL71g-Rq_t1wsoX9-67" vertex="1">
          <mxGeometry y="338" width="220" height="42" as="geometry" />
        </mxCell>
        <mxCell id="Rk-5OL71g-Rq_t1wsoX9-93" value="" style="shape=partialRectangle;connectable=0;fillColor=none;top=0;left=0;bottom=0;right=0;editable=1;overflow=hidden;whiteSpace=wrap;html=1;fontSize=17;" parent="Rk-5OL71g-Rq_t1wsoX9-92" vertex="1">
          <mxGeometry width="40" height="42" as="geometry">
            <mxRectangle width="40" height="42" as="alternateBounds" />
          </mxGeometry>
        </mxCell>
        <mxCell id="Rk-5OL71g-Rq_t1wsoX9-94" value="quantity" style="shape=partialRectangle;connectable=0;fillColor=none;top=0;left=0;bottom=0;right=0;align=left;spacingLeft=6;overflow=hidden;whiteSpace=wrap;html=1;fontSize=17;" parent="Rk-5OL71g-Rq_t1wsoX9-92" vertex="1">
          <mxGeometry x="40" width="180" height="42" as="geometry">
            <mxRectangle width="180" height="42" as="alternateBounds" />
          </mxGeometry>
        </mxCell>
        <mxCell id="Rk-5OL71g-Rq_t1wsoX9-95" value="" style="shape=tableRow;horizontal=0;startSize=0;swimlaneHead=0;swimlaneBody=0;fillColor=none;collapsible=0;dropTarget=0;points=[[0,0.5],[1,0.5]];portConstraint=eastwest;top=0;left=0;right=0;bottom=0;fontSize=17;" parent="Rk-5OL71g-Rq_t1wsoX9-67" vertex="1">
          <mxGeometry y="380" width="220" height="42" as="geometry" />
        </mxCell>
        <mxCell id="Rk-5OL71g-Rq_t1wsoX9-96" value="" style="shape=partialRectangle;connectable=0;fillColor=none;top=0;left=0;bottom=0;right=0;editable=1;overflow=hidden;whiteSpace=wrap;html=1;fontSize=17;" parent="Rk-5OL71g-Rq_t1wsoX9-95" vertex="1">
          <mxGeometry width="40" height="42" as="geometry">
            <mxRectangle width="40" height="42" as="alternateBounds" />
          </mxGeometry>
        </mxCell>
        <mxCell id="Rk-5OL71g-Rq_t1wsoX9-97" value="price" style="shape=partialRectangle;connectable=0;fillColor=none;top=0;left=0;bottom=0;right=0;align=left;spacingLeft=6;overflow=hidden;whiteSpace=wrap;html=1;fontSize=17;" parent="Rk-5OL71g-Rq_t1wsoX9-95" vertex="1">
          <mxGeometry x="40" width="180" height="42" as="geometry">
            <mxRectangle width="180" height="42" as="alternateBounds" />
          </mxGeometry>
        </mxCell>
        <mxCell id="Rk-5OL71g-Rq_t1wsoX9-102" value="" style="edgeStyle=entityRelationEdgeStyle;fontSize=12;html=1;endArrow=ERzeroToMany;startArrow=ERmandOne;rounded=0;entryX=0;entryY=0.5;entryDx=0;entryDy=0;exitX=1;exitY=0.5;exitDx=0;exitDy=0;" parent="1" target="Rk-5OL71g-Rq_t1wsoX9-77" edge="1" source="Rk-5OL71g-Rq_t1wsoX9-2">
          <mxGeometry width="100" height="100" relative="1" as="geometry">
            <mxPoint x="160" y="360" as="sourcePoint" />
            <mxPoint x="260" y="260" as="targetPoint" />
            <Array as="points">
              <mxPoint x="260" y="420" />
            </Array>
          </mxGeometry>
        </mxCell>
        <mxCell id="Rk-5OL71g-Rq_t1wsoX9-107" value="" style="edgeStyle=entityRelationEdgeStyle;fontSize=12;html=1;endArrow=ERzeroToMany;startArrow=ERmandOne;rounded=0;entryX=1;entryY=0.5;entryDx=0;entryDy=0;" parent="1" source="Rk-5OL71g-Rq_t1wsoX9-34" target="Rk-5OL71g-Rq_t1wsoX9-74" edge="1">
          <mxGeometry width="100" height="100" relative="1" as="geometry">
            <mxPoint x="570" y="550" as="sourcePoint" />
            <mxPoint x="670" y="450" as="targetPoint" />
          </mxGeometry>
        </mxCell>
        <mxCell id="qtXQVS3ZxYAhD9VV4Bwj-2" value="&lt;b&gt;&lt;font style=&quot;font-size: 40px;&quot;&gt;Data Mart&lt;/font&gt;&lt;/b&gt;" style="text;html=1;align=center;verticalAlign=middle;whiteSpace=wrap;rounded=0;labelBackgroundColor=default;" parent="1" vertex="1">
          <mxGeometry x="325" y="110" width="190" height="80" as="geometry" />
        </mxCell>
        <mxCell id="qtXQVS3ZxYAhD9VV4Bwj-3" value="&lt;font style=&quot;font-size: 20px;&quot;&gt;Star schema - Model&lt;/font&gt;" style="text;html=1;align=center;verticalAlign=middle;whiteSpace=wrap;rounded=0;labelBackgroundColor=default;" parent="1" vertex="1">
          <mxGeometry x="320" y="210" width="200" height="30" as="geometry" />
        </mxCell>
      </root>
    </mxGraphModel>
  </diagram>
</mxfile>
